<?xml version="1.0" encoding="UTF-8" standalone="no"?>
<!DOCTYPE svg PUBLIC "-//W3C//DTD SVG 1.1//EN"
 "http://www.w3.org/Graphics/SVG/1.1/DTD/svg11.dtd">
<!-- Generated by graphviz version 12.0.0 (20240704.0754)
 -->
<!-- Title: NFA Pages: 1 -->
<svg width="648pt" height="114pt"
 viewBox="0.00 0.00 648.00 114.08" xmlns="http://www.w3.org/2000/svg" xmlns:xlink="http://www.w3.org/1999/xlink">
<g id="graph0" class="graph" transform="scale(1.48157 1.48157) rotate(0) translate(4 73)">
<title>NFA</title>
<!-- ST_A -->
<g id="node1" class="node">
<title>ST_A</title>
<ellipse fill="none" stroke="black" cx="32.33" cy="-18" rx="32.33" ry="18"/>
<text text-anchor="middle" x="32.33" y="-12.2" font-family="Helvetica,Arial,sans-serif" font-size="14.00">ST_A</text>
</g>
<!-- ST_A&#45;&gt;ST_A -->
<g id="edge1" class="edge">
<title>ST_A&#45;&gt;ST_A</title>
<path fill="none" stroke="black" d="M22.68,-35.41C20.88,-45.09 24.1,-54 32.33,-54 37.1,-54 40.18,-51.02 41.59,-46.64"/>
<polygon fill="black" stroke="black" points="45.08,-47.04 41.94,-36.92 38.08,-46.79 45.08,-47.04"/>
<text text-anchor="middle" x="32.33" y="-55.7" font-family="Helvetica,Arial,sans-serif" font-size="14.00">a</text>
</g>
<!-- ST_B -->
<g id="node2" class="node">
<title>ST_B</title>
<ellipse fill="none" stroke="black" cx="140.5" cy="-18" rx="32.33" ry="18"/>
<text text-anchor="middle" x="140.5" y="-12.2" font-family="Helvetica,Arial,sans-serif" font-size="14.00">ST_B</text>
</g>
<!-- ST_A&#45;&gt;ST_B -->
<g id="edge2" class="edge">
<title>ST_A&#45;&gt;ST_B</title>
<path fill="none" stroke="black" d="M64.9,-18C74.87,-18 86.05,-18 96.66,-18"/>
<polygon fill="black" stroke="black" points="96.36,-21.5 106.36,-18 96.36,-14.5 96.36,-21.5"/>
<text text-anchor="middle" x="86.42" y="-19.7" font-family="Helvetica,Arial,sans-serif" font-size="14.00">a</text>
</g>
<!-- ST_B&#45;&gt;ST_B -->
<g id="edge3" class="edge">
<title>ST_B&#45;&gt;ST_B</title>
<path fill="none" stroke="black" d="M130.85,-35.41C129.05,-45.09 132.26,-54 140.5,-54 145.27,-54 148.35,-51.02 149.76,-46.64"/>
<polygon fill="black" stroke="black" points="153.25,-47.04 150.11,-36.92 146.25,-46.79 153.25,-47.04"/>
<text text-anchor="middle" x="140.5" y="-55.7" font-family="Helvetica,Arial,sans-serif" font-size="14.00">b</text>
</g>
<!-- ST_C -->
<g id="node3" class="node">
<title>ST_C</title>
<ellipse fill="none" stroke="black" cx="249.16" cy="-18" rx="32.82" ry="18"/>
<text text-anchor="middle" x="249.16" y="-12.2" font-family="Helvetica,Arial,sans-serif" font-size="14.00">ST_C</text>
</g>
<!-- ST_B&#45;&gt;ST_C -->
<g id="edge4" class="edge">
<title>ST_B&#45;&gt;ST_C</title>
<path fill="none" stroke="black" d="M173.22,-18C183.14,-18 194.26,-18 204.84,-18"/>
<polygon fill="black" stroke="black" points="204.5,-21.5 214.5,-18 204.5,-14.5 204.5,-21.5"/>
<text text-anchor="middle" x="194.59" y="-19.7" font-family="Helvetica,Arial,sans-serif" font-size="14.00">b</text>
</g>
<!-- ST_DONE -->
<g id="node4" class="node">
<title>ST_DONE</title>
<ellipse fill="none" stroke="black" cx="377.05" cy="-18" rx="52.32" ry="18"/>
<text text-anchor="middle" x="377.05" y="-12.2" font-family="Helvetica,Arial,sans-serif" font-size="14.00">ST_DONE</text>
</g>
<!-- ST_C&#45;&gt;ST_DONE -->
<g id="edge5" class="edge">
<title>ST_C&#45;&gt;ST_DONE</title>
<path fill="none" stroke="black" d="M282.25,-18C291.67,-18 302.31,-18 312.95,-18"/>
<polygon fill="black" stroke="black" points="312.94,-21.5 322.94,-18 312.94,-14.5 312.94,-21.5"/>
<text text-anchor="middle" x="303.36" y="-19.7" font-family="Helvetica,Arial,sans-serif" font-size="14.00">c</text>
</g>
</g>
</svg>
